<?xml version="1.0" encoding="UTF-8" standalone="no"?>
<svg
   xmlns:dc="http://purl.org/dc/elements/1.1/"
   xmlns:cc="http://creativecommons.org/ns#"
   xmlns:rdf="http://www.w3.org/1999/02/22-rdf-syntax-ns#"
   xmlns:svg="http://www.w3.org/2000/svg"
   xmlns="http://www.w3.org/2000/svg"
   xmlns:sodipodi="http://sodipodi.sourceforge.net/DTD/sodipodi-0.dtd"
   xmlns:inkscape="http://www.inkscape.org/namespaces/inkscape"
   width="128"
   height="128"
   viewBox="0 0 33.866666 33.866668"
   version="1.1"
   id="svg8"
   inkscape:version="1.0.2 (e86c870879, 2021-01-15, custom)"
   sodipodi:docname="ENH_Logo.svg"
   inkscape:export-filename="C:\Users\rober\Desktop\logoOver.png"
   inkscape:export-xdpi="96.000008"
   inkscape:export-ydpi="96.000008">
  <defs
     id="defs2">
    <rect
       x="208.7375"
       y="114.12409"
       width="60.354279"
       height="31.869925"
       id="rect837" />
  </defs>
  <sodipodi:namedview
     id="base"
     pagecolor="#ffffff"
     bordercolor="#666666"
     borderopacity="1.0"
     inkscape:pageopacity="0.0"
     inkscape:pageshadow="2"
     inkscape:zoom="3.6203867"
     inkscape:cx="23.835687"
     inkscape:cy="76.763273"
     inkscape:document-units="mm"
     inkscape:current-layer="layer1"
     inkscape:document-rotation="0"
     showgrid="false"
     inkscape:pagecheckerboard="true"
     showborder="true"
     inkscape:window-width="2560"
     inkscape:window-height="1361"
     inkscape:window-x="-9"
     inkscape:window-y="-9"
     inkscape:window-maximized="1"
     units="px" />
  <metadata
     id="metadata5">
    <rdf:RDF>
      <cc:Work
         rdf:about="">
        <dc:format>image/svg+xml</dc:format>
        <dc:type
           rdf:resource="http://purl.org/dc/dcmitype/StillImage" />
        <dc:title />
      </cc:Work>
    </rdf:RDF>
  </metadata>
  <rect
     y="8.9009603e-07"
     x="8.9009603e-07"
     height="33.866665"
     width="33.866665"
     id="rect833"
     style="display:inline;fill:#988297;fill-opacity:1;stroke:#ff0000;stroke-width:0"
     inkscape:export-xdpi="96"
     inkscape:export-ydpi="96"
     inkscape:export-filename="C:\Users\rober\rect833.png"
     inkscape:label="Colored Background" />
  <g
     inkscape:label="Ebene 1"
     inkscape:groupmode="layer"
     id="layer1"
     style="display:inline">
    <path
       id="path833"
       style="display:inline;fill:#ffffff;fill-opacity:1;stroke:#ff0000;stroke-width:0"
       d="M 16.869771,3.439621 A 13.493749,13.493731 0 0 0 3.4395837,16.933352 13.493749,13.493731 0 0 0 16.933333,30.427083 13.493749,13.493731 0 0 0 30.427083,16.933352 13.493749,13.493731 0 0 0 16.933333,3.439621 a 13.493749,13.493731 0 0 0 -0.06357,0 z M 5.0270837,12.964608 h 5.7360833 v 1.535305 H 7.0615836 v 1.36994 h 3.4354504 v 1.535304 H 7.0615836 v 1.961634 h 3.7015834 v 1.535305 H 5.0270837 Z m 7.4563923,0 h 2.444811 l 2.891815,4.547003 v -4.547003 h 1.87482 v 7.937488 h -1.970423 l -3.366203,-5.448237 v 5.448237 h -1.87482 z m 9.245947,0 h 2.045353 v 2.905245 h 3.01997 v -2.905245 h 2.044836 v 7.937488 h -2.044836 v -3.496939 h -3.01997 v 3.496939 h -2.045353 z"
       inkscape:export-xdpi="96"
       inkscape:export-ydpi="96"
       inkscape:export-filename="C:\Users\rober\rect833.png"
       inkscape:label="White Logo" />
    <g
       aria-label="ENH"
       transform="matrix(0.42943414,0,0,0.42981868,-76.271615,-27.388903)"
       id="text835"
       style="font-style:normal;font-weight:normal;font-size:25.4px;line-height:1.25;font-family:sans-serif;white-space:pre;shape-inside:url(#rect837);display:inline;fill:#000000;fill-opacity:1;stroke:none" />
  </g>
</svg>
